{"glyphs":{":":{"x_min":0,"x_max":225,"ha":225,"o":"m 80 24 q 80 38 89 47 q 98 57 112 57 q 126 57 135 47 q 145 38 145 24 q 145 10 135 1 q 126 -8 112 -8 q 98 -8 89 1 q 80 10 80 24 z m 80 443 q 80 456 89 466 q 98 476 112 476 q 126 476 135 466 q 145 456 145 443 q 145 430 135 420 q 126 411 112 411 q 98 411 89 420 q 80 430 80 443 z"},"$":{"x_min":0,"x_max":580,"ha":580,"o":"m 290 -8 q 254 -8 227 -2 q 199 4 176 16 q 152 28 133 45 q 114 62 96 83 l 98 85 q 100 86 100 87 q 102 88 104 88 q 107 88 113 82 q 118 76 128 66 q 138 56 152 45 q 166 34 186 24 q 206 15 231 8 q 256 2 290 2 l 302 365 q 270 376 238 388 q 208 400 183 420 q 159 439 144 467 q 130 495 130 537 q 130 570 142 600 q 154 631 178 654 q 202 678 236 692 q 270 706 314 707 l 318 801 q 318 809 324 809 l 329 809 l 325 707 q 374 706 412 690 q 450 673 483 638 l 481 635 q 480 632 476 632 q 471 632 462 642 q 453 652 436 664 q 418 676 392 686 q 365 696 325 697 l 314 374 q 349 362 384 349 q 418 336 445 318 q 472 298 489 270 q 506 241 506 197 q 506 155 492 118 q 478 82 452 54 q 426 27 387 10 q 349 -6 300 -8 l 296 -129 q 296 -137 290 -137 l 285 -137 z m 495 195 q 495 236 479 263 q 464 290 438 309 q 412 327 380 339 q 347 351 313 362 l 300 2 q 346 4 383 20 q 419 36 444 62 q 469 88 482 122 q 495 156 495 195 z m 141 537 q 141 500 154 474 q 168 448 190 430 q 213 412 242 400 q 272 388 303 377 l 314 696 q 272 696 240 682 q 208 669 186 647 q 164 625 152 596 q 141 568 141 537 z"},"?":{"x_min":0,"x_max":347,"ha":347,"o":"m 16 640 q 28 652 43 665 q 58 677 77 687 q 96 696 118 702 q 140 708 167 708 q 198 708 226 698 q 256 688 278 670 q 300 652 314 626 q 327 600 327 566 q 327 528 315 500 q 302 473 284 452 q 266 432 244 416 q 222 400 204 385 q 185 371 172 356 q 160 342 159 324 l 156 238 l 148 238 l 148 325 q 148 344 160 360 q 172 375 191 390 q 210 404 232 420 q 253 435 272 456 q 290 476 303 503 q 315 530 315 566 q 315 597 302 622 q 290 646 270 663 q 249 680 222 689 q 196 698 167 698 q 132 698 106 688 q 80 678 62 666 q 44 654 34 644 q 24 634 22 634 q 20 634 18 636 z m 120 24 q 120 38 129 47 q 138 57 152 57 q 166 57 175 47 q 185 38 185 24 q 185 10 175 1 q 166 -8 152 -8 q 138 -8 129 1 q 120 10 120 24 z"},"<":{"x_min":0,"x_max":580,"ha":580,"o":"m 85 338 l 450 524 l 450 518 q 450 512 440 508 l 119 345 q 113 342 107 339 q 102 336 96 335 q 102 333 107 330 q 113 328 119 325 l 440 162 q 450 157 450 152 l 450 146 l 85 332 z"},"'":{"x_min":0,"x_max":214,"ha":214,"o":"m 112 700 l 112 553 l 111 477 q 111 473 107 473 q 103 473 103 477 l 102 553 l 102 700 z"},"=":{"x_min":0,"x_max":580,"ha":580,"o":"m 90 270 l 490 270 l 490 260 l 90 260 z m 90 417 l 490 417 l 490 407 l 90 407 z"},"a":{"x_min":0,"x_max":469,"ha":469,"o":"m 392 0 q 385 0 385 8 l 382 88 q 361 66 340 48 q 319 30 296 18 q 272 6 245 -1 q 218 -8 185 -8 q 163 -8 141 -1 q 118 6 100 20 q 82 35 71 58 q 60 82 60 115 q 60 148 79 174 q 98 200 138 219 q 178 238 238 248 q 299 259 382 261 l 382 324 q 382 362 374 393 q 365 424 348 444 q 332 466 307 477 q 282 488 249 488 q 223 488 202 482 q 181 477 164 469 q 148 461 136 452 q 124 442 114 434 q 106 426 100 420 q 94 415 92 415 q 90 415 87 418 l 85 420 q 121 458 160 478 q 198 498 249 498 q 286 498 314 486 q 341 474 359 452 q 377 429 386 397 q 394 364 394 324 l 394 0 z m 185 2 q 220 2 248 10 q 276 18 299 32 q 322 45 343 63 q 363 80 382 100 l 382 251 q 224 246 148 212 q 72 178 72 115 q 72 86 82 64 q 92 43 107 29 q 123 16 143 9 q 164 2 185 2 z"},"L":{"x_min":0,"x_max":509,"ha":509,"o":"m 132 11 l 489 11 l 489 0 l 120 0 l 120 700 l 132 700 z"},"3":{"x_min":0,"x_max":580,"ha":580,"o":"m 304 708 q 340 708 374 698 q 408 688 434 667 q 461 646 477 613 q 493 580 493 533 q 493 498 480 468 q 466 438 444 416 q 422 394 392 380 q 364 366 333 361 q 376 358 410 343 q 444 328 467 306 q 490 282 501 252 q 513 221 513 185 q 513 146 497 112 q 480 76 452 50 q 422 24 382 8 q 342 -8 295 -8 q 253 -8 221 0 q 190 9 166 23 q 143 36 127 55 q 112 73 101 92 q 90 112 84 132 q 78 151 74 168 l 76 169 q 78 170 80 170 q 84 170 86 167 q 88 164 89 158 q 90 150 95 136 q 99 122 108 105 q 117 88 131 69 q 146 51 168 36 q 190 21 222 12 q 252 2 295 2 q 346 2 385 19 q 424 36 449 63 q 475 90 488 122 q 501 154 501 185 q 501 221 488 252 q 476 283 449 306 q 422 329 380 342 q 338 356 279 356 l 279 364 q 325 366 362 378 q 400 391 426 413 q 452 436 467 466 q 481 496 481 533 q 481 576 466 608 q 452 639 427 659 q 402 679 370 688 q 338 698 304 698 q 265 698 232 686 q 199 674 174 652 q 149 630 132 600 q 116 570 110 534 q 108 526 103 526 l 98 526 q 104 568 121 602 q 138 636 165 659 q 192 682 227 695 q 262 708 304 708 z"},";":{"x_min":0,"x_max":225,"ha":225,"o":"m 82 26 q 82 38 90 48 q 98 57 112 57 q 126 57 134 47 q 143 37 143 18 q 143 -20 126 -56 q 110 -92 84 -119 l 82 -118 q 81 -116 81 -114 q 81 -113 84 -110 q 88 -103 97 -92 q 106 -80 114 -66 q 122 -50 127 -32 q 133 -14 133 6 q 124 -4 110 -4 q 98 -4 90 4 q 82 12 82 26 z m 80 443 q 80 456 89 466 q 98 476 112 476 q 126 476 135 466 q 145 456 145 443 q 145 430 135 420 q 126 411 112 411 q 98 411 89 420 q 80 430 80 443 z"},"J":{"x_min":0,"x_max":462,"ha":462,"o":"m 342 226 q 342 167 328 123 q 313 80 287 50 q 260 21 224 6 q 187 -8 143 -8 q 102 -8 57 7 l 58 10 q 60 15 64 15 q 69 15 76 13 q 82 11 91 8 q 100 6 113 4 q 126 2 143 2 q 186 2 220 16 q 255 30 279 58 q 304 86 317 128 q 330 170 330 226 l 330 700 l 342 700 z"},"V":{"x_min":0,"x_max":614,"ha":614,"o":"m 10 700 l 19 700 q 24 700 25 695 l 299 37 q 302 32 304 26 q 306 21 307 16 q 308 21 310 26 q 312 32 315 37 l 589 695 q 590 700 596 700 l 604 700 l 312 0 l 302 0 z"},"\"":{"x_min":0,"x_max":341,"ha":341,"o":"m 112 700 l 112 553 l 111 477 q 111 473 107 473 q 103 473 103 477 l 102 553 l 102 700 z m 239 700 l 239 553 l 238 477 q 238 473 234 473 q 230 473 230 477 l 229 553 l 229 700 z"},"7":{"x_min":0,"x_max":580,"ha":580,"o":"m 530 700 l 530 694 q 530 691 528 687 l 180 6 q 177 0 169 0 l 163 0 l 512 682 q 514 686 516 689 l 79 689 q 73 689 73 695 l 73 700 z"},"S":{"x_min":0,"x_max":516,"ha":516,"o":"m 441 636 q 438 633 436 633 q 431 633 422 643 q 412 654 395 666 q 377 678 349 688 q 321 698 279 698 q 236 698 203 685 q 170 672 147 650 q 124 628 113 598 q 101 570 101 538 q 101 498 117 470 q 132 444 158 425 q 184 406 216 394 q 250 382 284 371 q 318 360 350 347 q 384 334 409 315 q 434 296 450 268 q 466 240 466 197 q 466 154 452 117 q 437 80 410 52 q 382 24 342 8 q 302 -8 251 -8 q 216 -8 188 -2 q 160 4 136 16 q 113 28 94 45 q 74 62 56 83 l 58 85 q 60 86 60 87 q 62 88 64 88 q 67 88 73 82 q 78 76 88 66 q 98 56 112 45 q 126 34 146 24 q 166 14 192 8 q 218 2 251 2 q 300 2 337 18 q 375 33 401 59 q 428 86 441 120 q 455 156 455 195 q 455 228 445 252 q 434 276 417 293 q 400 310 376 323 q 353 335 326 345 q 300 354 272 363 q 245 371 218 381 q 192 391 169 404 q 146 416 128 435 q 110 453 100 478 q 90 504 90 538 q 90 572 102 602 q 115 633 139 656 q 163 680 198 694 q 234 708 279 708 q 330 708 369 692 q 408 675 443 639 z"},"}":{"x_min":0,"x_max":300,"ha":300,"o":"m 174 231 q 174 202 179 174 q 184 147 191 120 q 198 93 203 65 q 208 38 208 8 q 208 -19 199 -42 q 190 -66 175 -84 q 159 -101 137 -111 q 114 -121 88 -121 l 60 -121 l 60 -117 q 60 -112 66 -112 l 88 -112 q 111 -112 131 -104 q 151 -95 166 -79 q 180 -64 189 -42 q 197 -20 197 8 q 197 36 192 64 q 186 92 180 120 q 174 148 168 175 q 163 203 163 231 q 163 250 170 264 q 176 279 187 290 q 198 300 210 306 q 224 312 236 315 q 224 317 210 323 q 198 330 187 340 q 176 350 170 365 q 163 380 163 399 q 163 427 168 455 q 174 482 180 510 q 186 538 192 566 q 197 594 197 622 q 197 650 189 672 q 180 694 166 709 q 151 725 131 734 q 111 742 88 742 l 66 742 q 60 742 60 747 l 60 751 l 88 751 q 114 751 137 741 q 159 731 175 714 q 190 696 199 672 q 208 649 208 622 q 208 592 203 565 q 198 537 191 510 q 184 483 179 456 q 174 428 174 399 q 174 382 180 367 q 187 352 198 342 q 210 332 226 326 q 242 320 260 320 l 260 310 q 242 310 226 304 q 210 298 198 288 q 187 277 180 262 q 174 248 174 231 z"},"Z":{"x_min":0,"x_max":641,"ha":641,"o":"m 578 700 l 578 698 q 578 694 574 688 l 87 11 l 577 11 l 576 0 l 70 0 l 70 2 q 70 5 71 7 q 72 8 73 11 l 561 689 l 78 689 l 78 700 z"},"x":{"x_min":0,"x_max":423,"ha":423,"o":"m 203 249 l 27 490 l 38 490 q 42 490 44 487 q 46 484 47 483 l 212 256 q 212 258 214 259 q 214 260 216 263 l 376 483 q 378 486 380 488 q 382 490 385 490 l 396 490 l 220 250 l 403 0 l 392 0 q 388 0 386 3 q 384 6 383 7 l 211 244 q 210 242 207 237 l 40 7 q 38 4 36 2 q 34 0 31 0 l 20 0 z"},")":{"x_min":0,"x_max":300,"ha":300,"o":"m 188 316 q 188 432 155 537 q 122 642 56 741 q 54 744 54 746 q 54 748 56 749 l 61 752 q 100 692 126 638 q 153 584 169 531 q 185 478 192 425 q 199 372 199 316 q 199 260 192 207 q 185 154 169 101 q 153 48 126 -6 q 100 -60 61 -120 l 56 -117 q 54 -116 54 -114 q 54 -112 56 -109 q 122 -10 155 95 q 188 200 188 316 z"},"&":{"x_min":0,"x_max":681,"ha":681,"o":"m 329 708 q 358 708 385 697 q 412 686 434 668 q 455 650 468 626 q 481 602 481 576 l 478 576 q 476 576 473 578 q 471 580 470 584 q 469 598 460 617 q 451 636 434 654 q 416 672 390 685 q 364 698 329 698 q 295 698 266 688 q 238 677 218 658 q 197 640 186 613 q 174 587 174 555 q 174 508 199 466 q 224 423 273 376 l 511 148 q 536 186 551 226 q 566 267 570 303 q 571 307 572 309 q 573 311 577 311 l 581 311 q 580 274 564 229 q 548 184 519 140 l 666 0 l 658 0 q 654 0 650 0 q 648 1 643 5 l 512 132 q 492 103 466 78 q 439 52 407 33 q 374 14 337 3 q 300 -8 257 -8 q 222 -8 187 4 q 152 16 124 38 q 97 61 80 94 q 63 128 63 172 q 63 210 77 244 q 91 278 116 306 q 140 334 174 355 q 206 376 245 388 q 224 410 209 430 q 194 450 183 469 q 172 489 167 510 q 162 531 162 555 q 162 588 174 616 q 186 644 209 665 q 231 685 262 696 q 292 708 329 708 z m 75 172 q 75 128 92 96 q 110 64 136 44 q 163 22 195 12 q 228 2 257 2 q 299 2 336 13 q 372 24 403 42 q 434 60 460 86 q 486 110 505 138 l 252 381 q 214 369 182 348 q 150 327 126 300 q 102 272 88 240 q 75 208 75 172 z"},"_":{"x_min":0,"x_max":394,"ha":394,"o":"m 394 -120 l 394 -131 l 0 -131 l 0 -120 z"},"v":{"x_min":0,"x_max":465,"ha":465,"o":"m 15 490 l 22 490 q 26 490 28 488 q 30 486 31 483 l 226 34 q 228 30 230 25 q 232 20 232 16 q 234 20 235 25 q 237 30 239 34 l 434 483 q 438 490 443 490 l 450 490 l 237 0 l 228 0 z"},"O":{"x_min":0,"x_max":797,"ha":797,"o":"m 722 350 q 722 267 698 201 q 674 135 632 89 q 589 42 530 18 q 470 -7 398 -7 q 326 -7 267 18 q 208 42 165 89 q 122 135 99 201 q 75 267 75 350 q 75 432 99 499 q 122 565 165 612 q 208 658 267 683 q 326 708 398 708 q 470 708 530 683 q 589 658 632 612 q 674 566 698 499 q 722 433 722 350 z m 709 350 q 709 432 686 496 q 664 560 622 606 q 582 650 524 674 q 467 698 398 698 q 330 698 273 674 q 216 650 175 606 q 134 560 110 496 q 87 432 87 350 q 87 268 110 204 q 134 140 175 95 q 216 50 273 27 q 330 3 398 3 q 467 3 524 27 q 582 50 622 95 q 664 140 686 204 q 709 268 709 350 z"},"(":{"x_min":0,"x_max":300,"ha":300,"o":"m 111 316 q 111 200 144 95 q 177 -10 243 -109 q 245 -112 245 -114 q 245 -116 243 -117 l 238 -120 q 199 -60 172 -6 q 146 48 130 101 q 114 154 107 207 q 100 260 100 316 q 100 372 107 425 q 114 478 130 531 q 146 584 172 638 q 199 692 238 752 l 243 749 q 245 748 245 746 q 245 744 243 741 q 177 642 144 537 q 111 432 111 316 z"},"C":{"x_min":0,"x_max":719,"ha":719,"o":"m 642 94 q 644 94 646 93 l 650 89 q 628 68 603 50 q 578 32 548 19 q 518 6 482 -1 q 446 -8 402 -8 q 332 -8 272 17 q 212 42 169 88 q 126 134 101 201 q 77 267 77 350 q 77 430 101 496 q 126 562 170 609 q 214 656 276 682 q 338 708 412 708 q 450 708 480 703 q 511 698 538 688 q 564 678 588 662 q 612 646 636 626 l 634 624 q 632 621 630 621 q 626 621 619 627 q 612 632 601 641 q 590 650 574 660 q 557 670 534 678 q 511 686 481 692 q 450 698 412 698 q 341 698 282 674 q 222 650 180 604 q 137 559 113 494 q 89 430 89 350 q 89 268 113 204 q 136 140 178 94 q 220 50 278 26 q 335 2 402 2 q 444 2 478 8 q 512 14 539 26 q 567 37 591 54 q 614 70 638 92 q 640 94 642 94 z"},"W":{"x_min":0,"x_max":959,"ha":959,"o":"m 10 700 l 19 700 q 24 700 25 695 l 230 42 q 232 34 234 28 q 236 22 237 15 q 238 22 240 28 q 242 34 244 42 l 472 695 q 474 700 478 700 l 481 700 q 486 700 487 695 l 714 42 q 720 28 722 15 q 725 30 730 42 l 934 695 q 936 700 941 700 l 949 700 l 727 0 l 717 0 l 484 672 q 481 682 480 688 q 478 682 475 672 l 242 0 l 232 0 z"},"A":{"x_min":0,"x_max":614,"ha":614,"o":"m 604 0 l 595 0 q 590 0 589 5 l 492 239 l 122 239 l 25 5 q 24 0 18 0 l 10 0 l 302 700 l 312 700 z m 126 249 l 488 249 l 315 663 q 312 668 311 673 q 309 678 307 684 q 305 678 303 673 q 302 668 299 663 z"},"f":{"x_min":0,"x_max":309,"ha":309,"o":"m 105 0 l 105 459 l 23 461 q 17 461 17 465 l 17 469 l 105 469 l 105 544 q 105 586 115 617 q 125 648 143 668 q 160 688 185 697 q 210 707 239 707 q 254 707 269 704 q 284 702 295 696 l 294 692 q 293 689 290 689 q 286 689 274 693 q 262 697 239 697 q 213 697 191 689 q 168 680 152 662 q 136 644 126 615 q 117 586 117 544 l 117 469 l 292 469 l 292 459 l 117 459 l 117 0 z"},"Q":{"x_min":0,"x_max":797,"ha":797,"o":"m 722 350 q 722 294 711 245 q 700 196 679 156 q 658 116 629 85 q 599 54 562 33 l 747 -163 l 736 -163 q 732 -163 730 -162 q 728 -160 726 -159 l 551 28 q 518 10 479 2 q 441 -7 398 -7 q 326 -7 267 18 q 208 42 165 89 q 122 135 99 201 q 75 267 75 350 q 75 432 99 499 q 122 565 165 612 q 208 658 267 683 q 326 708 398 708 q 470 708 530 683 q 589 658 632 612 q 674 566 698 499 q 722 433 722 350 z m 709 350 q 709 432 686 496 q 664 560 622 606 q 582 650 524 674 q 467 698 398 698 q 330 698 273 674 q 216 650 175 606 q 134 560 110 496 q 87 432 87 350 q 87 268 110 204 q 134 140 175 95 q 216 50 273 27 q 330 3 398 3 q 467 3 524 27 q 582 50 622 95 q 664 140 686 204 q 709 268 709 350 z"},"w":{"x_min":0,"x_max":712,"ha":712,"o":"m 15 490 l 22 490 q 26 490 28 488 q 30 486 31 483 l 181 34 q 183 28 185 24 q 186 18 188 13 q 188 18 190 24 q 192 28 194 34 l 350 488 q 352 493 355 493 l 358 493 q 362 493 363 488 l 518 34 q 520 28 522 23 q 524 18 524 14 q 527 23 531 34 l 681 483 q 684 490 690 490 l 697 490 l 529 0 l 524 0 q 520 0 518 5 l 361 461 q 358 469 356 475 q 356 472 354 468 q 353 465 352 461 l 193 5 q 192 0 188 0 l 183 0 z"},"-":{"x_min":0,"x_max":320,"ha":320,"o":"m 50 299 l 270 299 l 270 289 l 50 289 z"},"E":{"x_min":0,"x_max":600,"ha":600,"o":"m 529 700 l 529 689 l 132 689 l 132 361 l 469 361 l 469 350 l 132 350 l 132 11 l 530 11 l 529 0 l 120 0 l 120 700 z"},"s":{"x_min":0,"x_max":427,"ha":427,"o":"m 348 447 q 346 444 343 444 q 339 444 331 451 q 324 458 309 466 q 294 474 272 481 q 249 488 216 488 q 185 488 159 478 q 134 469 115 453 q 96 438 86 417 q 76 396 76 374 q 76 348 88 330 q 101 312 121 300 q 142 288 168 279 q 194 270 220 262 q 248 254 274 245 q 300 236 320 222 q 340 208 352 187 q 365 167 365 137 q 365 107 354 80 q 344 54 323 34 q 302 15 273 4 q 243 -8 205 -8 q 178 -8 158 -4 q 137 0 119 8 q 102 16 86 26 q 71 38 56 51 l 59 54 q 60 56 62 56 q 62 57 65 57 q 69 57 78 48 q 87 40 103 30 q 120 19 144 10 q 169 2 205 2 q 241 2 269 12 q 296 23 316 41 q 334 60 344 84 q 354 108 354 136 q 354 164 342 183 q 329 202 309 215 q 288 228 262 237 q 236 246 210 254 q 182 262 156 270 q 130 280 110 293 q 90 306 78 326 q 65 345 65 374 q 65 398 76 421 q 87 443 107 460 q 127 478 155 488 q 182 498 216 498 q 258 498 289 487 q 320 476 350 450 z"},">":{"x_min":0,"x_max":580,"ha":580,"o":"m 130 146 l 130 152 q 130 157 140 162 l 461 325 q 466 328 472 330 q 478 333 484 335 q 478 336 472 339 q 467 342 461 345 l 140 508 q 130 512 130 518 l 130 524 l 495 338 l 495 332 z"},"l":{"x_min":0,"x_max":222,"ha":222,"o":"m 117 720 l 117 0 l 105 0 l 105 720 z"},"8":{"x_min":0,"x_max":580,"ha":580,"o":"m 290 -8 q 242 -8 201 5 q 161 18 132 42 q 102 66 86 101 q 70 136 70 179 q 70 223 84 256 q 98 288 122 311 q 146 334 178 347 q 209 360 243 366 q 208 372 180 388 q 153 403 134 425 q 116 447 106 475 q 96 502 96 534 q 96 570 109 602 q 122 634 147 657 q 172 680 208 694 q 244 708 290 708 q 336 708 372 694 q 408 680 433 657 q 458 634 471 602 q 484 570 484 534 q 484 502 474 475 q 464 447 445 425 q 426 403 399 388 q 372 372 337 366 q 371 360 402 347 q 434 334 458 311 q 482 288 496 256 q 510 223 510 179 q 510 136 494 101 q 478 66 448 42 q 419 18 379 5 q 338 -8 290 -8 z m 290 2 q 336 2 374 14 q 412 27 439 50 q 467 73 482 106 q 498 138 498 179 q 498 216 488 243 q 478 270 462 291 q 446 311 424 324 q 403 338 380 346 q 357 354 334 357 q 310 360 290 360 q 270 360 246 357 q 223 354 200 346 q 177 338 156 324 q 134 311 118 291 q 102 270 92 243 q 82 216 82 179 q 82 138 98 106 q 113 73 141 50 q 168 27 206 14 q 244 2 290 2 z m 290 370 q 336 370 370 384 q 404 398 427 420 q 450 443 461 472 q 472 502 472 534 q 472 569 460 599 q 447 630 424 651 q 400 673 366 686 q 332 698 290 698 q 248 698 214 686 q 180 673 156 651 q 133 630 120 599 q 108 569 108 534 q 108 502 119 472 q 130 443 153 420 q 176 398 210 384 q 244 370 290 370 z"},"\\":{"x_min":0,"x_max":342,"ha":342,"o":"m 1 720 l 6 720 q 13 720 16 714 l 336 -39 l 332 -39 q 329 -39 326 -38 q 322 -37 321 -33 z"},"e":{"x_min":0,"x_max":500,"ha":500,"o":"m 264 498 q 302 498 336 484 q 370 470 394 444 q 419 416 433 377 q 447 338 447 287 q 447 284 445 283 q 444 282 441 282 l 63 282 q 62 275 62 268 q 62 262 62 255 q 62 194 76 147 q 91 100 118 69 q 144 37 182 20 q 220 4 266 4 q 308 4 337 13 q 367 22 387 33 q 406 44 417 53 q 427 62 430 62 q 432 62 434 60 l 436 58 q 428 48 411 36 q 394 25 371 16 q 348 6 322 0 q 294 -6 266 -6 q 216 -6 176 12 q 136 30 108 63 q 80 96 65 145 q 50 194 50 255 q 50 309 64 354 q 79 398 106 430 q 134 462 174 480 q 214 498 264 498 z m 264 488 q 220 488 185 474 q 150 460 124 434 q 98 408 83 372 q 68 335 64 291 l 436 291 q 436 338 423 375 q 410 412 387 437 q 364 462 332 475 q 300 488 264 488 z"},"b":{"x_min":0,"x_max":535,"ha":535,"o":"m 95 0 l 95 720 l 107 720 l 107 389 q 140 439 187 468 q 234 498 289 498 q 384 498 434 437 q 485 376 485 248 q 485 194 471 148 q 458 102 430 68 q 404 34 363 14 q 323 -6 270 -6 q 216 -6 175 16 q 134 37 106 82 l 105 7 q 105 4 104 2 q 103 0 99 0 z m 289 488 q 234 488 188 458 q 141 427 107 373 l 107 98 q 139 46 178 25 q 218 4 270 4 q 322 4 360 23 q 398 42 423 74 q 448 108 460 152 q 473 196 473 248 q 473 370 426 429 q 380 488 289 488 z"},"%":{"x_min":0,"x_max":750,"ha":750,"o":"m 330 532 q 330 487 319 454 q 308 421 288 400 q 270 378 244 368 q 218 357 190 357 q 161 357 136 368 q 110 378 91 400 q 72 421 61 454 q 50 487 50 532 q 50 578 61 610 q 72 644 91 665 q 110 687 136 698 q 161 708 190 708 q 218 708 244 698 q 270 687 288 665 q 308 644 319 610 q 330 578 330 532 z m 319 532 q 319 576 309 607 q 298 638 281 659 q 263 680 240 689 q 216 699 190 699 q 164 699 140 689 q 117 680 99 659 q 82 638 71 607 q 61 576 61 532 q 61 488 71 457 q 82 426 99 405 q 117 385 140 376 q 164 366 190 366 q 216 366 240 376 q 263 385 281 405 q 298 426 309 457 q 319 488 319 532 z m 612 696 q 614 700 620 700 l 627 700 l 133 4 q 130 0 125 0 l 118 0 z m 700 167 q 700 122 689 89 q 678 56 658 34 q 640 13 614 2 q 588 -8 560 -8 q 531 -8 506 2 q 480 13 461 34 q 442 56 431 89 q 420 122 420 167 q 420 212 431 246 q 442 278 461 300 q 480 322 506 332 q 531 343 560 343 q 588 343 614 332 q 640 322 658 300 q 678 278 689 246 q 700 212 700 167 z m 689 167 q 689 210 679 242 q 668 274 651 294 q 633 314 610 324 q 586 334 560 334 q 534 334 510 324 q 487 314 469 294 q 452 274 441 242 q 431 210 431 167 q 431 124 441 92 q 452 60 469 40 q 487 20 510 10 q 534 1 560 1 q 586 1 610 10 q 633 20 651 40 q 668 60 679 92 q 689 124 689 167 z"},"m":{"x_min":0,"x_max":774,"ha":774,"o":"m 88 0 l 88 490 l 91 490 q 98 490 98 482 l 100 390 q 128 439 169 468 q 210 498 258 498 q 317 498 350 462 q 384 425 392 358 q 398 393 412 420 q 427 446 448 464 q 469 481 495 490 q 520 498 548 498 q 582 498 610 486 q 638 474 658 451 q 678 428 688 393 q 699 358 699 314 l 699 0 l 687 0 l 687 314 q 687 398 651 443 q 614 488 548 488 q 518 488 491 477 q 464 466 443 444 q 422 422 410 390 q 397 358 397 314 l 397 0 l 385 0 l 385 314 q 385 355 377 387 q 368 420 352 442 q 336 464 312 476 q 288 488 257 488 q 210 488 170 458 q 130 428 100 374 l 100 0 z"},"#":{"x_min":0,"x_max":580,"ha":580,"o":"m 362 230 l 310 0 l 307 0 q 300 0 300 4 q 300 6 302 14 l 350 230 l 180 230 l 130 8 q 128 0 122 0 l 117 0 l 168 230 l 61 230 q 54 230 54 236 l 54 239 l 170 239 l 218 461 l 82 461 l 82 464 q 82 470 89 470 l 220 470 l 269 692 q 270 700 278 700 l 282 700 l 230 470 l 402 470 l 453 700 l 458 700 q 463 700 463 696 q 463 694 460 684 l 412 470 l 530 470 l 530 467 q 530 461 523 461 l 412 461 l 362 239 l 495 239 q 502 239 502 233 l 502 230 z m 180 239 l 352 239 l 400 461 l 230 461 z"},",":{"x_min":0,"x_max":185,"ha":185,"o":"m 62 26 q 62 38 70 48 q 78 57 92 57 q 106 57 114 47 q 123 37 123 18 q 123 -20 106 -56 q 90 -92 64 -119 l 62 -118 q 61 -116 61 -114 q 61 -113 64 -110 q 68 -103 77 -92 q 86 -80 94 -66 q 102 -50 107 -32 q 113 -14 113 6 q 104 -4 90 -4 q 78 -4 70 4 q 62 12 62 26 z"},"n":{"x_min":0,"x_max":528,"ha":528,"o":"m 88 0 l 88 490 l 91 490 q 98 490 98 482 l 100 388 q 116 412 138 433 q 159 454 184 468 q 208 482 235 490 q 262 498 291 498 q 372 498 413 450 q 453 401 453 314 l 453 0 l 441 0 l 441 314 q 441 355 432 387 q 423 420 404 442 q 386 464 357 476 q 329 488 291 488 q 234 488 185 457 q 136 426 100 372 l 100 0 z"},"h":{"x_min":0,"x_max":528,"ha":528,"o":"m 88 0 l 88 720 l 100 720 l 100 388 q 117 413 138 433 q 160 454 184 468 q 208 482 236 490 q 262 498 291 498 q 372 498 413 450 q 453 401 453 314 l 453 0 l 441 0 l 441 314 q 441 355 432 387 q 423 420 404 442 q 386 464 357 476 q 329 488 291 488 q 234 488 185 457 q 136 426 100 372 l 100 0 z"},"z":{"x_min":0,"x_max":444,"ha":444,"o":"m 402 485 q 402 484 401 482 q 400 482 399 479 l 56 10 l 387 10 l 387 0 l 39 0 l 39 3 q 39 6 40 6 q 40 8 42 10 l 386 480 l 56 480 l 56 490 l 402 490 z"},"B":{"x_min":0,"x_max":636,"ha":636,"o":"m 120 0 l 120 700 l 302 700 q 414 700 468 655 q 523 610 523 526 q 523 495 511 466 q 498 437 477 414 q 456 391 426 376 q 397 360 362 357 q 407 354 443 340 q 478 327 504 305 q 529 282 542 252 q 556 222 556 184 q 556 140 541 105 q 526 70 496 47 q 467 24 425 12 q 382 0 329 0 z m 132 350 l 132 10 l 329 10 q 380 10 420 21 q 460 32 487 54 q 515 76 530 108 q 544 141 544 184 q 544 222 529 253 q 514 284 486 305 q 458 327 418 338 q 378 350 330 350 z m 132 360 l 307 360 q 363 360 402 376 q 441 391 466 415 q 490 440 501 469 q 512 498 512 526 q 512 604 460 647 q 408 690 302 690 l 132 690 z"},"K":{"x_min":0,"x_max":642,"ha":642,"o":"m 152 362 l 199 362 q 208 362 215 362 q 222 363 227 365 q 232 366 237 370 q 242 374 248 379 l 574 692 q 580 696 583 698 q 586 700 592 700 l 598 700 l 258 374 q 250 366 244 363 q 238 359 228 357 q 237 356 244 352 q 250 348 257 341 l 618 0 l 613 0 q 606 0 602 2 q 599 3 595 7 l 251 332 q 244 339 238 343 q 232 347 227 349 q 222 351 215 352 q 208 352 199 352 l 152 352 l 152 0 l 140 0 l 140 701 l 152 701 z"},"R":{"x_min":0,"x_max":620,"ha":620,"o":"m 152 338 l 152 0 l 140 0 l 140 700 l 302 700 q 412 700 470 658 q 529 615 529 525 q 529 482 512 448 q 496 414 466 390 q 436 366 394 352 q 352 339 302 338 q 307 336 311 333 q 315 330 319 325 l 592 0 l 584 0 q 580 0 578 1 q 575 2 571 6 l 309 320 q 304 326 300 329 q 296 332 291 334 q 286 336 278 337 q 272 338 261 338 z m 152 348 l 293 348 q 344 348 386 360 q 427 372 456 395 q 486 418 501 451 q 517 484 517 525 q 517 610 462 650 q 406 690 302 690 l 152 690 z"},"T":{"x_min":0,"x_max":580,"ha":580,"o":"m 560 700 l 560 689 l 297 689 l 297 0 l 285 0 l 285 689 l 20 689 l 20 700 z"},"P":{"x_min":0,"x_max":579,"ha":579,"o":"m 152 300 l 152 0 l 140 0 l 140 700 l 298 700 q 412 700 474 650 q 535 601 535 500 q 535 456 518 420 q 500 383 469 356 q 438 330 394 315 q 350 300 298 300 z m 152 310 l 298 310 q 350 310 391 325 q 432 340 462 365 q 491 391 507 426 q 523 460 523 500 q 523 594 467 642 q 410 690 298 690 l 152 690 z"},"|":{"x_min":0,"x_max":300,"ha":300,"o":"m 145 751 l 155 751 l 155 -180 l 145 -180 z"},"t":{"x_min":0,"x_max":342,"ha":342,"o":"m 209 -8 q 166 -8 142 16 q 117 39 117 93 l 117 459 l 36 459 q 29 459 29 464 l 29 467 l 117 469 l 121 666 q 121 668 122 671 q 124 673 126 673 l 129 673 l 129 469 l 296 469 l 296 459 l 129 459 l 129 93 q 129 68 135 51 q 142 34 152 23 q 164 12 178 7 q 192 2 209 2 q 230 2 246 8 q 262 15 272 22 q 284 30 290 36 q 297 43 300 43 q 302 43 304 41 l 306 39 q 298 29 288 20 q 277 12 264 5 q 252 -1 237 -4 q 223 -8 209 -8 z"},"M":{"x_min":0,"x_max":899,"ha":899,"o":"m 449 160 q 450 158 452 156 q 453 154 454 150 q 456 154 457 156 q 458 158 460 160 l 768 696 q 770 700 775 700 l 779 700 l 779 0 l 769 0 l 769 669 q 769 672 769 674 q 769 676 770 679 l 463 145 q 460 140 456 140 l 453 140 q 450 140 446 145 l 130 678 q 130 676 130 674 q 130 672 130 669 l 130 0 l 120 0 l 120 700 l 124 700 q 128 700 131 696 z"},"g":{"x_min":0,"x_max":498,"ha":498,"o":"m 245 498 q 278 498 304 490 q 331 481 352 466 l 471 466 l 471 464 q 471 461 468 459 q 466 457 463 457 l 365 455 q 388 434 399 406 q 411 377 411 342 q 411 307 399 278 q 388 250 366 229 q 344 208 314 197 q 283 186 245 186 q 196 186 159 204 q 146 198 136 188 q 126 180 118 170 q 110 160 106 149 q 102 138 102 129 q 102 104 118 91 q 133 78 158 71 q 184 64 216 63 q 249 61 283 60 q 317 58 350 54 q 382 51 408 41 q 433 30 448 12 q 464 -7 464 -39 q 464 -68 449 -95 q 434 -122 406 -143 q 378 -164 339 -176 q 300 -188 251 -188 q 202 -188 164 -178 q 126 -167 100 -149 q 74 -131 60 -107 q 47 -83 47 -56 q 47 -14 76 16 q 104 46 152 63 q 124 70 108 85 q 91 100 91 129 q 91 139 95 150 q 100 161 107 172 q 114 182 125 192 q 136 202 150 210 q 116 230 97 264 q 79 298 79 342 q 79 376 90 405 q 102 434 124 454 q 146 475 176 486 q 206 498 245 498 z m 453 -39 q 453 -11 439 6 q 426 22 402 32 q 380 41 350 44 q 320 48 288 50 q 256 52 225 53 q 194 54 167 60 q 144 51 124 40 q 104 29 89 14 q 75 0 67 -18 q 59 -35 59 -56 q 59 -82 72 -104 q 86 -126 111 -142 q 136 -159 171 -168 q 206 -178 251 -178 q 290 -178 327 -168 q 364 -158 392 -139 q 420 -121 436 -96 q 453 -70 453 -39 z m 245 196 q 282 196 310 206 q 338 217 358 236 q 378 256 388 282 q 399 310 399 342 q 399 374 388 402 q 378 428 358 448 q 338 467 309 478 q 280 488 245 488 q 210 488 181 478 q 152 467 132 448 q 112 428 102 402 q 91 374 91 342 q 91 310 102 282 q 112 256 132 236 q 152 217 181 206 q 210 196 245 196 z"},"j":{"x_min":0,"x_max":220,"ha":220,"o":"m 117 490 l 117 -86 q 117 -108 110 -126 q 103 -145 90 -158 q 78 -172 60 -180 q 42 -187 19 -187 q 6 -187 -4 -184 q -14 -182 -23 -176 l -21 -172 q -19 -168 -16 -168 q -12 -168 -4 -172 q 4 -177 19 -177 q 62 -177 83 -152 q 105 -126 105 -86 l 105 490 z m 139 672 q 139 662 130 653 q 122 645 111 645 q 100 645 91 653 q 83 662 83 672 q 83 684 91 692 q 100 700 111 700 q 122 700 130 692 q 139 684 139 672 z"},"i":{"x_min":0,"x_max":222,"ha":222,"o":"m 117 490 l 117 0 l 105 0 l 105 490 z m 139 672 q 139 662 130 653 q 122 645 111 645 q 100 645 91 653 q 83 662 83 672 q 83 684 91 692 q 100 700 111 700 q 122 700 130 692 q 139 684 139 672 z"},"y":{"x_min":0,"x_max":465,"ha":465,"o":"m 162 -169 q 160 -173 158 -176 q 154 -180 150 -180 l 143 -180 l 227 8 l 15 490 l 22 490 q 26 490 28 488 q 31 486 32 483 l 227 38 q 229 34 231 29 q 232 24 234 20 q 234 24 236 29 q 238 34 240 38 l 435 483 q 438 490 444 490 l 451 490 z"},"@":{"x_min":0,"x_max":821,"ha":821,"o":"m 584 95 q 539 95 519 118 q 500 142 500 182 q 500 188 500 195 q 500 202 502 208 q 476 151 438 124 q 401 98 356 98 q 330 98 310 107 q 292 116 279 132 q 266 148 260 169 q 254 190 254 215 q 254 243 261 272 q 268 300 282 327 q 296 353 317 376 q 338 399 364 416 q 390 432 421 442 q 452 452 489 452 q 510 452 531 448 q 552 444 567 437 l 523 269 q 516 243 513 222 q 510 202 510 186 q 510 160 516 145 q 522 129 533 120 q 544 112 557 108 q 570 105 585 105 q 617 105 646 121 q 676 136 698 166 q 721 196 734 239 q 748 282 748 335 q 748 414 722 472 q 696 530 651 568 q 607 606 549 624 q 492 643 428 643 q 382 643 337 631 q 293 618 254 595 q 214 572 182 538 q 149 505 125 463 q 102 422 88 372 q 75 322 75 266 q 75 175 104 105 q 134 36 184 -12 q 234 -59 302 -83 q 368 -107 443 -107 q 516 -107 579 -89 q 643 -72 700 -34 q 702 -32 704 -32 q 708 -32 709 -36 l 712 -41 q 654 -80 588 -99 q 522 -118 443 -118 q 364 -118 296 -93 q 226 -68 175 -19 q 124 30 94 101 q 64 172 64 266 q 64 351 93 422 q 122 494 172 545 q 222 596 288 624 q 354 653 428 653 q 471 653 512 644 q 554 636 591 618 q 628 601 658 575 q 690 548 712 513 q 734 478 746 433 q 759 388 759 335 q 759 280 745 236 q 731 192 707 160 q 683 129 651 112 q 620 95 584 95 z m 358 108 q 378 108 400 115 q 422 122 443 140 q 464 158 481 190 q 499 222 512 271 l 554 433 q 538 437 524 440 q 510 442 489 442 q 454 442 424 432 q 394 423 370 407 q 345 390 326 368 q 306 346 293 321 q 280 296 273 268 q 266 242 266 215 q 266 193 272 174 q 278 154 289 140 q 300 125 317 116 q 334 108 358 108 z"},".":{"x_min":0,"x_max":185,"ha":185,"o":"m 60 24 q 60 38 69 47 q 78 57 92 57 q 106 57 115 47 q 125 38 125 24 q 125 10 115 1 q 106 -8 92 -8 q 78 -8 69 1 q 60 10 60 24 z"},"p":{"x_min":0,"x_max":521,"ha":521,"o":"m 88 -180 l 88 490 l 91 490 q 98 490 98 482 l 100 389 q 132 440 179 469 q 226 498 282 498 q 377 498 428 437 q 478 376 478 248 q 478 194 464 148 q 450 102 424 68 q 396 34 356 14 q 316 -6 263 -6 q 155 -6 100 82 l 100 -180 z m 282 488 q 228 488 181 458 q 134 427 100 373 l 100 98 q 132 46 172 25 q 211 4 263 4 q 314 4 352 23 q 390 42 416 74 q 441 108 454 152 q 466 196 466 248 q 466 370 419 429 q 372 488 282 488 z"},"X":{"x_min":0,"x_max":562,"ha":562,"o":"m 273 358 l 22 700 l 33 700 q 37 700 39 698 q 40 695 42 693 l 282 364 l 286 372 l 520 693 q 522 696 524 698 q 526 700 529 700 l 540 700 l 290 360 l 552 0 l 541 0 q 537 0 535 3 q 533 6 532 7 l 281 353 q 280 350 277 346 l 30 7 q 28 4 26 2 q 24 0 21 0 l 10 0 z"},"*":{"x_min":0,"x_max":400,"ha":400,"o":"m 194 463 l 194 577 q 194 582 195 586 q 196 590 198 598 q 191 592 188 590 q 186 588 180 585 l 79 526 l 74 535 l 175 594 q 180 596 184 598 q 188 599 196 602 q 187 605 184 606 q 180 607 175 610 l 73 669 l 78 678 l 180 619 q 182 618 184 616 q 186 615 188 614 q 189 612 191 610 q 194 608 198 604 q 196 613 195 617 q 194 621 194 627 l 194 741 l 204 741 l 204 627 q 204 621 204 617 q 204 613 201 604 q 208 611 211 614 q 214 616 219 619 l 320 678 l 325 669 l 224 610 q 219 607 215 605 q 212 604 204 602 q 212 599 216 598 q 219 596 224 594 l 326 535 l 321 526 l 219 585 q 216 586 215 588 q 213 588 211 590 q 210 591 207 593 q 204 595 201 599 q 202 590 203 586 q 204 582 204 577 l 204 463 z"},"Y":{"x_min":0,"x_max":574,"ha":574,"o":"m 293 298 l 293 0 l 281 0 l 281 298 l 20 700 l 30 700 q 34 700 37 696 l 272 331 q 276 324 280 319 q 284 313 287 307 q 290 313 294 319 q 298 324 302 331 l 537 696 q 540 700 544 700 l 554 700 z"},"c":{"x_min":0,"x_max":445,"ha":445,"o":"m 400 444 q 398 442 396 442 q 393 442 385 449 q 376 456 361 465 q 345 474 321 481 q 298 488 264 488 q 216 488 179 471 q 142 454 116 422 q 90 391 76 346 q 62 301 62 245 q 62 187 76 142 q 90 98 115 67 q 140 36 176 20 q 212 4 256 4 q 295 4 322 13 q 349 22 366 33 q 384 44 393 53 q 402 62 405 62 q 407 62 409 60 l 411 58 q 404 47 389 36 q 374 24 354 15 q 334 6 310 0 q 284 -6 256 -6 q 208 -6 170 11 q 132 28 106 60 q 79 92 64 139 q 50 186 50 245 q 50 302 64 349 q 79 396 106 428 q 134 462 174 480 q 214 498 264 498 q 308 498 343 484 q 378 470 403 447 z"},"!":{"x_min":0,"x_max":305,"ha":305,"o":"m 161 700 l 161 414 q 161 392 161 373 q 160 354 160 334 q 160 314 159 290 q 158 268 158 238 l 150 238 q 149 268 148 290 q 148 314 148 334 q 148 354 147 373 q 147 392 147 414 l 147 700 z m 120 24 q 120 38 129 47 q 138 57 152 57 q 166 57 175 47 q 185 38 185 24 q 185 10 175 1 q 166 -8 152 -8 q 138 -8 129 1 q 120 10 120 24 z"},"/":{"x_min":0,"x_max":342,"ha":342,"o":"m 16 -33 q 14 -37 11 -38 q 8 -39 5 -39 l 1 -39 l 321 714 q 324 720 331 720 l 336 720 z"},"[":{"x_min":0,"x_max":300,"ha":300,"o":"m 102 -121 l 102 751 l 239 751 l 239 748 q 239 742 232 742 l 113 742 l 113 -112 l 232 -112 q 239 -112 239 -118 l 239 -121 z"},"6":{"x_min":0,"x_max":580,"ha":580,"o":"m 304 409 q 352 409 390 394 q 428 378 456 350 q 482 323 497 285 q 512 247 512 202 q 512 155 496 116 q 479 78 449 50 q 420 22 378 7 q 338 -8 289 -8 q 243 -8 205 7 q 166 22 139 50 q 111 78 96 120 q 80 162 80 215 q 80 252 101 304 q 122 356 172 423 l 375 697 q 376 700 378 700 q 380 700 381 700 l 391 700 l 182 418 q 155 382 137 352 q 118 322 108 295 q 120 322 141 342 q 162 364 188 378 q 214 393 243 401 q 272 409 304 409 z m 92 207 q 92 162 106 125 q 120 88 146 60 q 172 33 208 18 q 244 2 289 2 q 338 2 378 17 q 417 32 444 59 q 471 86 486 122 q 500 159 500 202 q 500 248 486 284 q 472 320 446 346 q 420 372 384 385 q 348 399 305 399 q 254 399 214 381 q 174 364 148 336 q 120 308 106 274 q 92 240 92 207 z"},"r":{"x_min":0,"x_max":392,"ha":392,"o":"m 88 0 l 88 490 l 91 490 q 98 490 98 482 l 100 346 q 110 382 126 411 q 141 439 162 458 q 183 478 210 488 q 236 498 270 498 q 294 498 314 493 q 335 488 354 479 l 352 475 q 351 474 350 472 q 350 471 347 471 q 344 471 339 474 q 333 476 324 479 q 314 482 301 484 q 288 487 270 487 q 204 487 164 444 q 124 401 100 322 l 100 0 z"},"2":{"x_min":0,"x_max":580,"ha":580,"o":"m 301 708 q 337 708 372 698 q 406 687 434 665 q 460 642 477 608 q 494 574 494 525 q 494 485 481 450 q 468 416 447 384 q 426 353 397 323 q 369 292 338 261 l 91 9 q 102 10 115 10 q 129 11 146 11 l 508 11 q 513 11 513 6 l 513 0 l 75 0 l 75 4 q 75 7 76 9 q 78 11 79 12 l 331 268 q 362 300 390 330 q 417 360 438 390 q 458 422 470 454 q 482 488 482 525 q 482 570 466 603 q 451 636 426 657 q 400 678 368 688 q 335 698 301 698 q 262 698 229 686 q 196 674 172 652 q 146 630 130 600 q 114 570 108 534 q 106 526 100 526 l 95 526 q 100 568 118 602 q 135 636 162 659 q 189 682 224 695 q 260 708 301 708 z"},"{":{"x_min":0,"x_max":300,"ha":300,"o":"m 126 231 q 126 248 120 262 q 113 277 102 288 q 90 298 74 304 q 58 310 40 310 l 40 320 q 58 320 74 326 q 90 332 102 342 q 113 352 120 367 q 126 382 126 399 q 126 428 121 456 q 116 483 109 510 q 102 537 97 565 q 92 592 92 622 q 92 649 101 672 q 110 696 125 714 q 141 731 163 741 q 186 751 212 751 l 240 751 l 240 747 q 240 742 234 742 l 212 742 q 188 742 169 734 q 149 725 134 709 q 120 694 111 672 q 103 650 103 622 q 103 594 108 566 q 114 538 120 510 q 126 482 132 455 q 137 427 137 399 q 137 380 130 365 q 124 350 113 340 q 102 330 90 323 q 76 317 64 315 q 76 312 90 306 q 102 300 113 290 q 124 279 130 264 q 137 250 137 231 q 137 203 132 175 q 126 148 120 120 q 114 92 108 64 q 103 36 103 8 q 103 -20 111 -42 q 120 -64 134 -79 q 149 -95 169 -104 q 188 -112 212 -112 l 234 -112 q 240 -112 240 -117 l 240 -121 l 212 -121 q 186 -121 163 -111 q 141 -101 125 -84 q 110 -66 101 -42 q 92 -19 92 8 q 92 38 97 65 q 102 93 109 120 q 116 147 121 174 q 126 202 126 231 z"},"9":{"x_min":0,"x_max":580,"ha":580,"o":"m 297 307 q 251 307 214 322 q 176 337 150 364 q 124 390 110 426 q 96 463 96 506 q 96 550 112 587 q 129 624 158 651 q 186 678 226 693 q 265 708 311 708 q 354 708 391 693 q 428 678 454 650 q 482 622 497 582 q 512 542 512 494 q 512 470 506 447 q 500 424 489 401 q 478 377 461 351 q 444 324 423 293 l 228 3 q 226 0 225 0 q 224 0 222 0 l 212 0 l 414 298 q 439 335 458 364 q 477 392 488 422 q 476 396 456 374 q 436 353 410 338 q 386 323 356 315 q 328 307 297 307 z m 500 501 q 500 544 486 580 q 472 616 446 642 q 421 668 386 683 q 352 698 311 698 q 266 698 229 684 q 192 670 165 645 q 138 620 123 584 q 108 548 108 506 q 108 462 122 428 q 136 392 160 368 q 185 344 220 330 q 254 317 296 317 q 344 317 382 334 q 420 351 447 378 q 473 404 486 437 q 500 470 500 501 z"}," ":{"x_min":0,"x_max":193,"ha":193,"o":""},"I":{"x_min":0,"x_max":292,"ha":292,"o":"m 152 0 l 140 0 l 140 700 l 152 700 z"},"H":{"x_min":0,"x_max":756,"ha":756,"o":"m 636 0 l 624 0 l 624 350 l 132 350 l 132 0 l 120 0 l 120 700 l 132 700 l 132 361 l 624 361 l 624 700 l 636 700 z"},"4":{"x_min":0,"x_max":580,"ha":580,"o":"m 410 226 l 558 226 l 558 222 q 558 216 550 216 l 410 216 l 410 0 l 398 0 l 398 216 l 51 216 q 46 216 44 217 q 43 218 42 221 l 41 225 l 403 701 l 410 701 z m 398 661 q 398 665 398 670 q 398 674 399 678 l 55 226 l 398 226 z"},"~":{"x_min":0,"x_max":580,"ha":580,"o":"m 398 264 q 419 264 436 272 q 452 280 464 293 q 476 306 483 325 q 490 343 490 364 l 500 364 q 500 342 493 322 q 486 302 474 287 q 460 272 442 263 q 422 254 398 254 q 372 254 344 265 q 316 276 288 290 q 260 304 233 315 q 206 326 182 326 q 161 326 144 318 q 128 310 116 297 q 104 284 97 265 q 90 247 90 226 l 80 226 q 80 248 87 268 q 94 288 106 303 q 120 318 138 327 q 158 336 182 336 q 208 336 236 325 q 264 314 292 300 q 320 286 347 275 q 374 264 398 264 z"},"D":{"x_min":0,"x_max":766,"ha":766,"o":"m 694 350 q 694 267 670 202 q 646 137 604 92 q 561 47 502 24 q 442 0 370 0 l 120 0 l 120 700 l 370 700 q 442 700 502 676 q 561 653 604 608 q 646 563 670 498 q 694 433 694 350 z m 681 350 q 681 432 658 495 q 636 558 594 602 q 554 645 496 668 q 439 690 370 690 l 132 690 l 132 10 l 370 10 q 439 10 496 32 q 554 55 594 98 q 636 142 658 205 q 681 268 681 350 z"},"^":{"x_min":0,"x_max":580,"ha":580,"o":"m 453 406 l 446 406 q 440 406 436 413 l 296 666 q 294 671 291 676 q 288 680 287 686 q 284 676 278 666 l 138 413 q 136 410 134 408 q 132 406 128 406 l 121 406 l 284 700 l 290 700 z"},"0":{"x_min":0,"x_max":580,"ha":580,"o":"m 538 350 q 538 258 518 191 q 498 124 465 80 q 431 36 386 14 q 340 -7 290 -7 q 240 -7 194 14 q 149 36 115 80 q 82 124 62 191 q 42 258 42 350 q 42 442 62 509 q 82 576 115 621 q 149 665 194 686 q 240 708 290 708 q 340 708 386 686 q 431 665 465 621 q 498 576 518 509 q 538 442 538 350 z m 525 350 q 525 440 506 506 q 488 571 456 614 q 424 656 381 677 q 338 698 290 698 q 242 698 199 677 q 156 656 124 614 q 92 571 73 506 q 54 440 54 350 q 54 260 73 194 q 92 129 124 86 q 156 44 199 24 q 242 3 290 3 q 338 3 381 24 q 424 44 456 86 q 488 129 506 194 q 525 260 525 350 z"},"F":{"x_min":0,"x_max":577,"ha":577,"o":"m 529 700 l 529 689 l 132 689 l 132 351 l 479 351 l 479 340 l 132 340 l 132 0 l 120 0 l 120 700 z"},"`":{"x_min":0,"x_max":280,"ha":280,"o":"m 77 708 q 86 708 90 706 q 94 704 98 697 l 180 579 l 173 579 q 168 579 165 583 l 64 708 z"},"k":{"x_min":0,"x_max":464,"ha":464,"o":"m 107 720 l 107 268 l 130 268 q 134 268 140 269 q 146 270 154 277 l 387 482 q 391 486 395 488 q 399 490 405 490 l 414 490 l 166 273 q 160 267 154 264 q 160 262 166 259 q 170 256 175 252 l 434 0 l 425 0 q 421 0 418 1 q 415 2 411 6 l 165 245 q 161 249 157 252 q 154 254 149 256 q 145 258 140 258 q 134 259 127 259 l 107 259 l 107 0 l 95 0 l 95 720 z"},"u":{"x_min":0,"x_max":528,"ha":528,"o":"m 87 490 l 87 176 q 87 135 96 103 q 105 70 124 48 q 142 26 170 14 q 198 2 237 2 q 294 2 343 32 q 391 63 428 117 l 428 490 l 440 490 l 440 0 l 437 0 q 430 0 430 8 l 428 102 q 410 77 390 56 q 368 36 344 22 q 320 8 292 0 q 266 -8 237 -8 q 155 -8 115 40 q 75 89 75 176 l 75 490 z"},"]":{"x_min":0,"x_max":300,"ha":300,"o":"m 61 -118 q 61 -112 68 -112 l 187 -112 l 187 742 l 68 742 q 61 742 61 748 l 61 751 l 198 751 l 198 -121 l 61 -121 z"},"U":{"x_min":0,"x_max":736,"ha":736,"o":"m 368 2 q 424 2 469 22 q 514 42 545 78 q 576 112 592 160 q 609 206 609 260 l 609 700 l 621 700 l 621 260 q 621 204 604 156 q 586 106 553 70 q 520 34 473 12 q 426 -9 368 -9 q 310 -9 263 12 q 216 34 183 70 q 150 106 132 156 q 115 204 115 260 l 115 700 l 127 700 l 127 261 q 127 208 144 160 q 160 113 191 78 q 222 42 267 22 q 312 2 368 2 z"},"o":{"x_min":0,"x_max":528,"ha":528,"o":"m 264 498 q 316 498 356 480 q 396 462 423 428 q 450 396 464 349 q 478 302 478 245 q 478 188 464 142 q 450 96 423 62 q 396 30 356 12 q 316 -6 264 -6 q 212 -6 172 12 q 132 30 105 62 q 78 96 64 142 q 50 188 50 245 q 50 302 64 349 q 78 396 105 428 q 132 462 172 480 q 212 498 264 498 z m 264 4 q 314 4 352 22 q 390 39 415 70 q 440 102 453 146 q 466 191 466 245 q 466 299 453 344 q 440 388 415 420 q 390 452 352 470 q 314 488 264 488 q 214 488 176 470 q 138 452 113 420 q 88 388 75 344 q 62 299 62 245 q 62 191 75 146 q 88 102 113 70 q 138 39 176 22 q 214 4 264 4 z"},"N":{"x_min":0,"x_max":756,"ha":756,"o":"m 124 700 q 128 700 131 696 l 626 22 q 626 24 626 27 q 626 30 626 32 l 626 700 l 636 700 l 636 0 l 633 0 q 630 0 628 4 l 130 681 q 130 678 130 675 q 130 672 130 669 l 130 0 l 120 0 l 120 700 l 124 700 z"},"+":{"x_min":0,"x_max":580,"ha":580,"o":"m 294 575 l 294 340 l 520 340 l 520 330 l 294 330 l 294 94 l 284 94 l 284 330 l 59 330 l 59 340 l 284 340 l 284 575 z"},"G":{"x_min":0,"x_max":761,"ha":761,"o":"m 411 2 q 454 2 489 7 q 524 12 554 21 q 584 30 610 43 q 637 56 664 74 l 664 291 l 507 291 q 501 291 501 296 l 501 301 l 675 301 l 675 69 q 649 52 621 37 q 594 23 562 13 q 530 3 493 -2 q 456 -8 411 -8 q 336 -8 274 17 q 212 42 169 88 q 125 134 101 201 q 77 267 77 350 q 77 432 101 499 q 125 565 170 612 q 215 658 279 683 q 342 708 422 708 q 461 708 494 703 q 526 698 554 688 q 582 678 606 664 q 630 648 654 628 l 652 625 q 650 622 648 622 q 644 622 631 634 q 618 646 592 660 q 566 674 524 686 q 482 698 422 698 q 346 698 284 674 q 223 650 180 606 q 136 560 112 496 q 89 432 89 350 q 89 268 112 204 q 136 140 178 94 q 220 50 280 26 q 339 2 411 2 z"},"q":{"x_min":0,"x_max":535,"ha":535,"o":"m 440 490 l 440 -180 l 428 -180 l 428 102 q 395 52 348 23 q 302 -6 246 -6 q 150 -6 100 55 q 50 116 50 244 q 50 297 64 344 q 77 390 104 424 q 131 458 171 478 q 212 498 265 498 q 319 498 360 476 q 400 455 428 410 l 430 482 q 430 490 437 490 z m 246 4 q 300 4 347 34 q 394 65 428 118 l 428 394 q 398 444 358 466 q 317 488 265 488 q 214 488 176 469 q 138 450 112 418 q 87 384 74 340 q 62 296 62 244 q 62 122 109 63 q 156 4 246 4 z"},"d":{"x_min":0,"x_max":535,"ha":535,"o":"m 437 0 q 430 0 430 8 l 428 102 q 395 52 348 23 q 302 -6 246 -6 q 150 -6 100 55 q 50 116 50 244 q 50 297 64 344 q 77 390 104 424 q 131 458 171 478 q 212 498 265 498 q 319 498 360 476 q 400 455 428 410 l 428 720 l 440 720 l 440 0 z m 246 4 q 300 4 347 34 q 394 65 428 118 l 428 394 q 396 446 356 467 q 316 488 265 488 q 214 488 176 469 q 138 450 112 418 q 87 384 74 340 q 62 296 62 244 q 62 122 109 63 q 156 4 246 4 z"},"1":{"x_min":0,"x_max":580,"ha":580,"o":"m 164 10 l 334 10 l 334 658 q 334 665 334 672 q 335 680 336 686 l 155 523 q 152 520 150 520 q 147 520 145 523 l 142 527 l 339 704 l 346 704 l 346 10 l 512 10 l 512 0 l 164 0 z"},"5":{"x_min":0,"x_max":580,"ha":580,"o":"m 478 695 q 478 692 476 691 q 474 689 471 689 l 188 689 l 138 412 q 176 422 210 426 q 244 430 274 430 q 328 430 369 415 q 410 400 438 373 q 466 346 480 307 q 494 269 494 223 q 494 168 475 125 q 456 82 424 52 q 392 23 350 8 q 308 -8 261 -8 q 234 -8 209 -4 q 184 1 162 8 q 140 16 122 25 q 104 34 91 44 l 94 48 q 96 51 100 51 q 104 51 116 44 q 128 36 148 28 q 168 18 196 11 q 224 4 261 4 q 306 4 346 18 q 386 32 416 60 q 446 88 463 129 q 481 170 481 224 q 481 266 469 302 q 456 338 431 365 q 406 391 366 406 q 327 420 274 420 q 244 420 209 416 q 174 411 134 401 l 125 405 l 178 700 l 478 700 z"}}}
